<?xml version="1.0" standalone="no"?>
<!DOCTYPE svg PUBLIC "-//W3C//DTD SVG 20010904//EN"
 "http://www.w3.org/TR/2001/REC-SVG-20010904/DTD/svg10.dtd">
<svg version="1.0" xmlns="http://www.w3.org/2000/svg"
 width="125.000000pt" height="167.000000pt" viewBox="0 0 125.000000 167.000000"
 preserveAspectRatio="xMidYMid meet">

<g transform="translate(0.000000,167.000000) scale(0.100000,-0.100000)"
fill="#000000" stroke="none">
<path d="M298 858 l-3 -743 -137 -3 c-113 -2 -138 -5 -138 -17 0 -8 10 -17 22
-20 13 -3 207 -4 433 -3 381 3 410 4 413 21 3 16 -15 17 -272 17 l-276 0 0
725 0 725 300 0 300 0 0 -60 c0 -54 -2 -60 -20 -60 -32 0 -106 -80 -114 -123
-11 -58 9 -111 56 -151 23 -20 50 -36 60 -36 16 0 18 -9 18 -85 l0 -85 -90 0
c-83 0 -90 -1 -90 -20 0 -19 7 -20 90 -20 l90 0 0 -202 0 -203 -75 -130 c-41
-71 -75 -136 -75 -143 0 -8 8 -12 17 -10 10 2 45 50 80 113 35 60 66 112 71
117 4 4 38 -47 76 -113 50 -87 73 -119 85 -116 9 2 15 8 14 14 -2 7 -36 71
-78 143 l-75 131 0 199 0 199 93 3 c74 2 92 6 92 18 0 12 -18 16 -92 18 l-93
3 0 77 0 77 50 27 c55 31 90 85 90 140 0 56 -39 119 -90 145 l-45 24 -5 72 -5
72 -337 3 -338 2 -2 -742z m707 535 c39 -19 75 -71 75 -109 0 -38 -26 -80 -63
-103 -43 -26 -60 -26 -108 1 -92 52 -80 176 21 217 34 13 35 13 75 -6z"/>
<path d="M910 1295 c13 -14 26 -25 28 -25 3 0 -5 11 -18 25 -13 14 -26 25 -28
25 -3 0 5 -11 18 -25z"/>
<path d="M935 1233 c22 -2 46 -12 54 -21 13 -16 13 -16 8 1 -4 11 -1 17 8 17
9 0 12 -6 9 -17 -5 -15 -4 -16 5 -3 19 27 12 30 -56 28 -45 -1 -54 -3 -28 -5z"/>
</g>
</svg>
