<?xml version="1.0" standalone="no"?>
<!DOCTYPE svg PUBLIC "-//W3C//DTD SVG 20010904//EN"
 "http://www.w3.org/TR/2001/REC-SVG-20010904/DTD/svg10.dtd">
<svg version="1.0" xmlns="http://www.w3.org/2000/svg"
 width="125.000000pt" height="167.000000pt" viewBox="0 0 125.000000 167.000000"
 preserveAspectRatio="xMidYMid meet">

<g transform="translate(0.000000,167.000000) scale(0.100000,-0.100000)"
fill="#000000" stroke="none">
<path d="M305 1588 c-3 -7 -6 -341 -8 -743 l-2 -730 -125 -3 c-144 -3 -158 -5
-140 -27 18 -21 841 -23 859 -2 6 8 8 17 4 20 -3 4 -129 7 -280 7 l-273 0 0
725 0 725 300 0 300 0 0 -60 c0 -52 -2 -60 -19 -60 -10 0 -40 -21 -65 -47 -45
-45 -46 -48 -46 -109 0 -60 1 -64 45 -108 24 -25 53 -46 65 -46 19 0 20 -6 20
-85 l0 -85 -91 0 c-81 0 -90 -2 -87 -17 3 -15 17 -18 91 -21 l87 -3 0 -205 0
-204 -46 -78 c-25 -42 -49 -84 -54 -92 -24 -37 -50 -90 -50 -100 0 -21 37 -9
50 18 27 52 121 212 126 212 3 0 8 -8 12 -18 19 -49 127 -222 138 -222 30 0
22 26 -35 121 -34 55 -61 102 -61 105 0 3 -9 17 -20 31 -19 24 -20 41 -20 229
l0 203 93 3 c74 2 92 6 92 18 0 12 -18 16 -92 18 l-93 3 0 77 0 77 45 24 c58
31 87 71 92 130 6 68 -28 128 -89 160 l-48 24 0 73 0 74 -335 0 c-259 0 -337
-3 -340 -12z m701 -194 c40 -19 74 -70 74 -110 0 -56 -63 -124 -116 -124 -28
0 -91 41 -103 67 -30 65 -1 141 63 169 40 17 42 17 82 -2z"/>
</g>
</svg>
