<?xml version="1.0" standalone="no"?>
<!DOCTYPE svg PUBLIC "-//W3C//DTD SVG 20010904//EN"
 "http://www.w3.org/TR/2001/REC-SVG-20010904/DTD/svg10.dtd">
<svg version="1.0" xmlns="http://www.w3.org/2000/svg"
 width="125.000000pt" height="167.000000pt" viewBox="0 0 125.000000 167.000000"
 preserveAspectRatio="xMidYMid meet">

<g transform="translate(0.000000,167.000000) scale(0.100000,-0.100000)"
fill="#000000" stroke="none">
<path d="M307 1593 c-4 -3 -7 -336 -7 -739 l0 -733 -132 -3 c-118 -3 -133 -5
-136 -21 -3 -16 21 -17 430 -15 377 3 433 5 433 18 0 13 -39 15 -277 18 l-278
2 0 720 0 720 305 0 304 0 3 -62 c2 -48 7 -63 18 -63 12 0 15 16 15 80 l0 80
-336 3 c-184 1 -338 -1 -342 -5z"/>
</g>
</svg>
