<?xml version="1.0" standalone="no"?>
<!DOCTYPE svg PUBLIC "-//W3C//DTD SVG 20010904//EN"
 "http://www.w3.org/TR/2001/REC-SVG-20010904/DTD/svg10.dtd">
<svg version="1.0" xmlns="http://www.w3.org/2000/svg"
 width="125.000000pt" height="167.000000pt" viewBox="0 0 125.000000 167.000000"
 preserveAspectRatio="xMidYMid meet">

<g transform="translate(0.000000,167.000000) scale(0.100000,-0.100000)"
fill="#000000" stroke="none">
<path d="M307 1593 c-4 -3 -7 -336 -7 -739 l0 -733 -132 -3 c-117 -3 -133 -5
-136 -20 -3 -17 23 -18 433 -18 410 0 436 1 433 18 -3 16 -26 17 -281 20
l-277 2 0 720 0 720 305 0 305 0 0 -54 0 -54 -47 -24 c-64 -34 -98 -98 -88
-166 6 -38 15 -55 51 -89 42 -41 47 -43 104 -43 53 0 63 4 96 32 40 36 64 82
64 125 0 49 -43 116 -91 141 l-44 23 -5 72 -5 72 -336 3 c-184 1 -338 -1 -342
-5z m706 -198 c37 -18 77 -71 77 -104 0 -35 -36 -96 -65 -109 -36 -17 -82 -15
-115 4 -28 17 -60 71 -60 102 0 32 36 85 71 104 41 22 52 22 92 3z"/>
</g>
</svg>
