<?xml version="1.0" standalone="no"?>
<!DOCTYPE svg PUBLIC "-//W3C//DTD SVG 20010904//EN"
 "http://www.w3.org/TR/2001/REC-SVG-20010904/DTD/svg10.dtd">
<svg version="1.0" xmlns="http://www.w3.org/2000/svg"
 width="125.000000pt" height="167.000000pt" viewBox="0 0 125.000000 167.000000"
 preserveAspectRatio="xMidYMid meet">

<g transform="translate(0.000000,167.000000) scale(0.100000,-0.100000)"
fill="#000000" stroke="none">
<path d="M307 1593 c-4 -3 -7 -336 -7 -739 l0 -733 -132 -3 c-118 -3 -133 -5
-136 -21 -3 -16 21 -17 430 -15 377 3 433 5 433 18 0 13 -39 15 -277 18 l-278
2 0 720 0 720 305 0 306 0 -3 -57 c-3 -51 -6 -58 -25 -61 -37 -5 -100 -77
-108 -122 -14 -81 17 -143 91 -179 l44 -22 0 -295 0 -295 -80 -140 c-44 -77
-78 -144 -75 -150 15 -24 37 1 113 135 l82 144 0 304 1 303 40 18 c59 28 89
78 89 149 0 54 -2 60 -43 103 -25 26 -53 45 -65 45 -20 0 -21 6 -24 78 l-3 77
-336 3 c-184 1 -338 -1 -342 -5z m707 -199 c105 -51 74 -224 -40 -224 -129 0
-168 175 -51 225 42 18 50 18 91 -1z"/>
</g>
</svg>
