<?xml version="1.0" standalone="no"?>
<!DOCTYPE svg PUBLIC "-//W3C//DTD SVG 20010904//EN"
 "http://www.w3.org/TR/2001/REC-SVG-20010904/DTD/svg10.dtd">
<svg version="1.0" xmlns="http://www.w3.org/2000/svg"
 width="125.000000pt" height="167.000000pt" viewBox="0 0 125.000000 167.000000"
 preserveAspectRatio="xMidYMid meet">

<g transform="translate(0.000000,167.000000) scale(0.100000,-0.100000)"
fill="#000000" stroke="none">
<path d="M305 1588 c-3 -7 -6 -341 -8 -743 l-2 -730 -125 -3 c-144 -3 -158 -5
-140 -27 19 -22 841 -22 860 0 10 12 10 16 -1 20 -8 3 -133 6 -279 7 l-265 3
-3 723 -2 722 300 0 300 0 0 -60 c0 -48 -3 -60 -16 -60 -21 0 -61 -32 -91 -72
-18 -25 -23 -45 -23 -88 0 -53 3 -59 45 -103 24 -26 54 -47 65 -47 20 0 20 -6
20 -310 l0 -310 -45 -74 c-25 -41 -45 -77 -45 -80 0 -2 -14 -27 -31 -55 -17
-27 -28 -54 -24 -60 13 -22 33 -10 54 32 12 23 27 51 34 62 7 11 27 46 45 78
19 31 35 57 37 57 2 0 10 -12 18 -27 49 -96 122 -213 133 -213 29 0 22 26 -34
119 -33 54 -63 107 -66 119 -4 11 -13 26 -21 32 -13 10 -15 62 -15 314 l0 301
45 24 c58 31 87 71 92 130 6 68 -28 128 -89 160 l-48 24 0 73 0 74 -335 0
c-259 0 -337 -3 -340 -12z m701 -194 c40 -19 74 -70 74 -110 0 -56 -63 -124
-116 -124 -28 0 -91 41 -103 67 -30 65 -1 141 63 169 40 17 42 17 82 -2z"/>
</g>
</svg>
