<?xml version="1.0" standalone="no"?>
<!DOCTYPE svg PUBLIC "-//W3C//DTD SVG 20010904//EN"
 "http://www.w3.org/TR/2001/REC-SVG-20010904/DTD/svg10.dtd">
<svg version="1.0" xmlns="http://www.w3.org/2000/svg"
 width="125.000000pt" height="167.000000pt" viewBox="0 0 125.000000 167.000000"
 preserveAspectRatio="xMidYMid meet">

<g transform="translate(0.000000,167.000000) scale(0.100000,-0.100000)"
fill="#000000" stroke="none">
<path d="M297 1593 c-4 -3 -7 -339 -7 -745 l0 -738 -136 0 c-124 0 -135 -2
-132 -17 3 -17 32 -18 433 -18 400 0 430 1 433 17 3 16 -17 18 -275 20 l-278
3 0 720 0 720 303 3 302 2 0 -54 0 -54 -46 -24 c-53 -28 -94 -91 -94 -144 0
-53 40 -114 93 -141 l47 -25 0 -79 0 -78 -92 -3 c-75 -2 -93 -6 -93 -18 0 -12
18 -16 93 -18 l92 -3 0 -199 0 -199 -75 -131 c-41 -72 -75 -137 -75 -145 0
-31 30 -13 56 33 15 26 46 80 69 120 l42 74 20 -29 c10 -15 25 -39 31 -53 7
-14 18 -34 25 -45 7 -11 25 -42 40 -68 27 -45 57 -63 57 -32 0 12 -63 128
-100 185 -51 78 -50 70 -50 388 l0 299 47 24 c62 32 97 94 89 157 -9 67 -55
126 -108 138 -26 6 -27 9 -30 83 l-3 76 -336 3 c-184 1 -338 -1 -342 -5z m707
-199 c34 -17 76 -76 76 -108 0 -35 -38 -92 -74 -109 -47 -22 -59 -22 -100 5
-33 22 -66 73 -66 103 0 32 35 84 69 104 44 25 51 25 95 5z"/>
</g>
</svg>
